<?xml version="1.0" standalone="no"?>
<!DOCTYPE svg PUBLIC "-//W3C//DTD SVG 20010904//EN"
 "http://www.w3.org/TR/2001/REC-SVG-20010904/DTD/svg10.dtd">
<svg version="1.0" xmlns="http://www.w3.org/2000/svg"
 width="4544.000000pt" height="4544.000000pt" viewBox="0 0 4544.000000 4544.000000"
 preserveAspectRatio="xMidYMid meet">
<metadata>
Created by potrace 1.14, written by Peter Selinger 2001-2017
</metadata>
<g transform="translate(0.000000,4544.000000) scale(0.100000,-0.100000)"
fill="#000000" stroke="none">
<path d="M16551 26590 c-4 -3 -7 -1449 -6 -3214 l0 -3209 22 -8 c13 -5 25 -4
28 2 4 5 11 6 17 3 15 -10 138 -10 138 -1 0 5 5 5 11 2 16 -10 79 -12 79 -2 0
4 9 3 19 -3 13 -7 22 -7 26 0 4 6 13 7 24 1 9 -5 23 -6 31 -1 7 4 24 4 36 0
14 -6 26 -5 29 0 4 6 13 7 23 1 11 -6 24 -6 35 0 9 6 17 6 17 2 0 -10 75 -7
92 3 6 4 9 3 5 -2 -3 -5 8 -9 23 -9 15 0 26 3 23 7 -2 5 6 4 19 -1 13 -5 28
-9 33 -9 6 0 20 4 33 9 13 5 21 6 19 1 -3 -4 8 -7 24 -7 16 0 29 4 29 8 0 5 5
5 11 2 15 -10 78 -12 73 -3 -3 5 6 4 19 -1 16 -6 28 -6 35 1 6 6 12 6 16 -1 5
-7 15 -7 32 -1 15 6 23 6 19 1 -3 -6 6 -6 24 -1 16 4 32 6 35 2 9 -8 65 -8 59
0 -2 5 7 4 21 -2 16 -6 26 -6 26 0 0 6 9 6 24 0 15 -5 27 -5 34 2 6 6 12 6 16
-1 5 -7 15 -7 31 -1 14 5 25 6 25 1 0 -5 16 -5 35 -1 19 4 35 4 35 -1 0 -5 12
-4 26 1 14 6 23 7 21 2 -3 -4 8 -7 24 -7 16 0 29 3 29 7 0 4 11 3 25 -2 15 -6
26 -6 30 1 4 5 11 6 17 3 16 -10 68 -11 68 -1 0 4 8 4 18 0 20 -10 53 -10 67
-1 6 4 17 3 25 -2 8 -5 22 -5 32 1 17 9 18 136 18 3219 l0 3210 -22 1 c-117 3
-1772 3 -1777 -1z"/>
<path d="M18937 26590 c-9 -4 -12 -134 -11 -565 1 -308 2 -565 3 -571 1 -12 6
-13 97 -15 36 -1 67 1 70 4 3 3 18 2 33 -3 15 -4 35 -4 44 1 9 6 18 6 21 0 3
-5 21 -5 41 -1 19 4 37 4 40 0 3 -4 20 -5 38 -1 18 5 41 6 52 5 20 -4 56 -5
85 -4 8 1 40 0 70 0 30 -1 60 -1 65 0 6 1 14 1 20 0 22 -4 123 -3 131 2 5 3
18 2 29 -2 11 -4 30 -4 42 1 12 5 25 4 28 0 3 -5 21 -5 40 -1 19 4 37 4 40 0
3 -4 20 -5 38 -1 18 5 41 6 52 5 20 -4 56 -5 85 -4 8 1 40 0 70 0 30 -1 60 -1
65 0 6 1 14 1 20 0 5 -1 34 -1 65 -1 72 1 86 1 113 1 12 0 33 1 47 3 14 1 40
0 58 -4 17 -4 32 -3 32 1 0 4 18 4 40 0 22 -4 43 -4 45 0 3 4 20 4 39 0 19 -4
37 -5 40 -2 4 3 6 263 6 579 0 539 -1 573 -17 574 -90 3 -1767 3 -1776 -1z"/>
<path d="M27479 26590 c-1 -3 -2 -1447 -3 -3210 -2 -3204 -2 -3205 18 -3217
14 -7 27 -8 38 -2 12 6 18 6 18 0 0 -7 9 -7 25 -1 14 5 25 6 25 2 0 -4 11 -7
25 -7 14 0 25 3 25 7 0 4 11 3 25 -2 15 -6 26 -6 30 1 4 5 11 6 17 3 16 -10
68 -11 68 -1 0 4 8 3 18 -2 21 -11 30 -11 60 0 13 5 21 6 19 1 -3 -4 8 -7 24
-7 16 0 29 4 29 8 0 5 5 5 11 2 15 -10 78 -12 73 -3 -3 5 6 4 19 -1 16 -6 28
-6 35 1 6 6 12 6 16 -1 5 -7 15 -7 32 -1 14 6 23 7 21 2 -3 -4 24 -7 59 -7 35
0 64 4 64 8 0 5 5 5 11 2 16 -10 79 -12 79 -2 0 4 9 3 19 -3 13 -7 22 -7 26 0
4 6 13 7 24 1 9 -5 23 -6 31 -1 7 4 24 4 36 0 14 -6 26 -5 29 0 4 6 13 7 23 1
11 -6 24 -6 35 0 9 6 17 6 17 2 0 -10 75 -7 92 3 6 4 9 3 6 -2 -4 -5 7 -9 22
-9 15 0 26 3 23 7 -2 5 6 4 19 -1 21 -8 67 -6 76 4 2 2 15 0 28 -5 14 -6 26
-6 29 1 4 5 12 6 18 2 6 -4 21 -7 32 -7 11 0 26 3 32 7 6 4 14 3 18 -2 3 -6
15 -7 28 -2 12 5 32 5 44 0 12 -4 24 -5 27 -1 3 6 71 8 71 2 0 -6 68 -3 72 3
3 4 11 3 19 -4 11 -9 16 -7 23 12 5 13 5 31 1 40 -5 8 -5 21 0 29 4 7 4 24 -1
37 -5 12 -5 23 -1 23 8 0 8 68 -1 76 -3 3 -2 16 2 28 5 11 5 30 1 41 -4 11 -4
31 0 45 4 14 3 37 -1 53 -4 15 -4 27 -1 27 8 0 7 118 -1 126 -3 3 -2 16 2 28
5 11 5 30 1 41 -4 11 -4 31 0 45 4 14 3 37 -1 53 -4 15 -4 27 -1 27 8 0 7 113
0 126 -3 5 -2 18 2 29 4 11 5 29 1 40 -5 18 -6 51 -1 65 4 14 2 341 -3 346 -3
3 -2 16 2 28 5 11 5 30 1 41 -4 11 -4 28 1 37 6 10 5 19 -1 23 -6 4 -7 12 -1
22 4 9 6 24 4 34 -3 11 -1 20 3 20 5 1 202 2 438 3 l428 1 25 -35 c71 -103
293 -444 293 -451 0 -5 5 -9 10 -9 6 0 10 -6 10 -12 0 -7 9 -24 20 -38 11 -14
79 -115 151 -225 173 -263 326 -496 339 -515 6 -8 34 -51 62 -95 29 -44 56
-81 60 -83 4 -2 8 -8 8 -14 0 -14 41 -70 47 -64 3 3 14 1 24 -4 12 -7 20 -7
24 0 4 6 11 8 16 4 16 -9 79 -10 79 -1 0 4 8 4 17 -2 10 -5 26 -5 40 0 13 5
23 5 23 1 0 -4 14 -7 30 -7 17 0 30 4 30 8 0 4 9 3 19 -3 13 -6 22 -7 26 0 3
6 15 6 30 0 15 -6 27 -6 30 0 4 6 13 7 23 1 11 -6 24 -6 35 0 9 6 17 6 17 2 0
-4 14 -8 30 -8 17 0 30 3 30 7 0 4 11 3 25 -2 16 -6 25 -6 25 1 0 6 6 6 18 0
11 -6 24 -6 34 0 10 6 19 6 23 0 4 -7 15 -7 31 -1 14 6 23 7 21 2 -3 -4 8 -7
24 -7 16 0 29 4 29 8 0 4 7 4 16 -1 9 -5 34 -6 55 -2 21 4 39 5 39 1 0 -3 14
-6 30 -6 17 0 30 4 30 8 0 4 9 3 19 -3 13 -6 22 -7 26 0 3 6 15 6 30 0 15 -6
27 -6 30 0 4 6 13 7 23 1 11 -6 24 -6 35 0 9 6 17 6 17 2 0 -4 14 -8 30 -8 17
0 30 3 30 7 0 4 11 3 25 -2 16 -6 25 -6 25 1 0 6 6 6 18 0 11 -6 24 -6 34 0
10 6 19 6 23 0 4 -7 15 -7 31 -1 14 6 23 7 21 2 -3 -4 8 -7 24 -7 16 0 29 4
29 8 0 4 7 4 16 -1 9 -5 34 -6 55 -2 21 4 39 5 39 1 0 -3 14 -6 30 -6 17 0 30
4 30 8 0 4 9 3 19 -3 13 -6 22 -7 26 0 3 6 15 6 30 0 15 -6 27 -6 30 0 4 6 13
7 23 1 11 -6 24 -6 35 0 9 6 17 6 17 2 0 -9 63 -8 79 1 5 4 12 2 16 -3 4 -7
15 -7 31 -1 14 6 23 7 21 2 -3 -4 8 -7 24 -7 16 0 29 4 29 8 0 4 9 3 19 -3 13
-7 22 -7 26 0 4 7 12 7 25 0 13 -7 21 -7 25 0 4 7 12 7 18 2 7 -4 24 -6 39 -3
l28 6 -62 90 c-33 50 -107 158 -163 240 -56 83 -126 186 -156 230 -30 44 -57
82 -61 83 -5 2 -8 9 -8 16 0 7 -9 21 -20 31 -11 10 -20 22 -20 28 0 5 -13 26
-30 47 -16 21 -30 42 -30 48 0 6 -4 12 -8 14 -9 3 -98 132 -122 176 -8 15 -18
29 -21 32 -7 6 -117 166 -267 390 -61 91 -116 170 -120 176 -12 14 -62 89 -85
128 -11 17 -27 40 -38 52 -10 11 -19 26 -19 32 0 7 -4 12 -8 12 -5 0 -15 12
-23 28 -8 15 -16 29 -19 32 -5 5 -37 51 -209 305 -44 66 -85 127 -91 135 -110
157 -111 160 -87 185 6 7 20 23 29 36 80 113 270 374 293 402 6 6 27 37 48 67
32 48 53 76 97 127 5 7 10 15 10 17 0 9 72 101 81 104 5 2 9 8 9 12 0 12 44
77 76 112 13 15 24 30 24 33 0 5 88 126 115 158 6 6 26 34 45 62 19 27 40 56
46 65 14 16 53 70 187 255 48 66 93 127 100 135 7 8 21 28 32 45 10 16 22 34
27 40 26 31 45 56 58 75 8 12 44 62 80 111 36 48 101 138 145 199 44 61 85
116 90 123 6 7 33 43 59 80 l48 68 -36 -4 c-20 -2 -36 0 -36 4 0 5 -10 5 -22
1 -20 -7 -85 -8 -113 -2 -5 1 -12 1 -15 0 -14 -6 -90 -4 -90 2 0 4 -10 4 -22
0 -20 -7 -85 -8 -113 -2 -5 1 -12 1 -15 0 -14 -6 -90 -4 -90 2 0 4 -10 4 -22
0 -20 -7 -85 -8 -113 -2 -5 1 -12 1 -15 0 -14 -6 -90 -4 -90 2 0 4 -10 4 -22
0 -20 -7 -85 -8 -113 -2 -5 1 -12 1 -15 0 -14 -6 -90 -4 -90 2 0 4 -10 4 -22
0 -20 -7 -85 -8 -113 -2 -5 1 -12 1 -15 0 -14 -6 -90 -4 -90 2 0 4 -10 4 -22
0 -20 -7 -85 -8 -113 -2 -5 1 -12 1 -15 0 -14 -6 -90 -4 -90 2 0 4 -10 4 -22
0 -20 -7 -85 -8 -113 -2 -5 1 -12 1 -15 0 -14 -6 -90 -4 -90 2 0 4 -10 4 -22
0 -20 -7 -85 -8 -113 -2 -5 1 -12 1 -15 0 -14 -6 -90 -4 -90 2 0 4 -10 4 -22
0 -13 -5 -44 -7 -70 -6 l-47 3 -40 -63 c-23 -34 -41 -68 -41 -74 0 -7 -4 -12
-10 -12 -5 0 -19 -17 -30 -37 -11 -21 -33 -57 -48 -80 -15 -23 -47 -75 -72
-115 -24 -40 -50 -79 -57 -86 -7 -7 -13 -17 -13 -22 0 -5 -6 -15 -13 -22 -6
-7 -21 -30 -32 -50 -11 -21 -23 -38 -27 -38 -5 0 -8 -6 -8 -13 0 -8 -11 -27
-25 -43 -14 -16 -25 -35 -25 -41 0 -7 -4 -13 -10 -13 -5 0 -10 -5 -10 -10 0
-6 -18 -38 -40 -71 -22 -33 -40 -64 -40 -69 0 -5 -3 -10 -8 -12 -4 -1 -30 -39
-57 -83 -27 -44 -53 -81 -57 -83 -4 -2 -8 -10 -8 -17 0 -8 -6 -20 -14 -27 -7
-8 -21 -30 -31 -48 -10 -19 -21 -37 -25 -40 -6 -4 -24 -33 -75 -118 -6 -9 -27
-43 -48 -75 -20 -31 -37 -61 -37 -66 0 -5 -4 -11 -9 -13 -9 -3 -101 -145 -127
-195 -9 -18 -25 -35 -37 -39 -33 -11 -117 -10 -121 1 -3 6 -5 5 -5 -1 -1 -11
-49 -10 -78 0 -6 3 -14 2 -17 -2 -9 -8 -86 -9 -86 0 0 4 -10 4 -22 0 -18 -6
-403 -8 -500 -3 -13 1 -16 10 -15 44 0 24 -2 47 -5 52 -3 6 -2 19 2 30 4 11 4
29 0 41 -5 11 -5 26 -1 32 3 6 5 28 3 49 -1 21 -3 45 -2 53 2 98 1 131 -5 140
-3 5 -3 10 2 10 9 0 9 117 0 126 -3 3 -2 16 2 28 5 11 5 30 1 41 -4 11 -4 31
0 45 4 14 3 37 -1 53 -4 15 -4 27 -1 27 8 0 7 118 -1 126 -3 3 -2 16 2 28 5
11 5 30 1 41 -4 11 -4 31 0 45 4 14 3 37 -1 53 -4 15 -4 27 -1 27 8 0 7 118
-1 126 -3 3 -2 16 2 28 5 11 5 30 1 41 -4 11 -4 31 0 45 4 14 3 37 -1 53 -4
15 -4 27 -1 27 8 0 7 118 -1 126 -3 3 -2 16 2 28 5 11 5 30 1 41 -4 11 -4 31
0 45 4 14 3 37 -1 53 -4 15 -4 27 -1 27 8 0 7 118 -1 126 -3 3 -2 16 2 28 5
11 5 30 1 41 -4 11 -4 31 0 45 4 14 3 37 -1 53 -4 15 -4 27 -1 27 8 0 7 118
-1 126 -3 3 -2 16 2 28 5 11 5 30 1 41 -4 11 -4 31 0 45 4 14 3 37 -1 53 -4
15 -4 27 -1 27 8 0 7 118 -1 126 -3 3 -2 16 2 28 5 11 5 30 1 41 -4 11 -4 31
0 45 4 14 3 37 -1 53 -4 15 -4 27 -1 27 8 0 7 113 0 126 -3 5 -2 18 2 29 4 11
5 29 1 40 -5 18 -6 44 -1 70 4 26 1 307 -4 312 -7 7 -1796 10 -1797 3z"/>
<path d="M43462 26590 c-14 -4 -19 -14 -19 -41 0 -20 -3 -44 -6 -53 -4 -9 -3
-15 1 -12 10 6 6 -219 -4 -235 -4 -7 -3 -9 3 -6 11 7 11 -62 0 -80 -4 -7 -4
-14 0 -16 10 -6 8 -100 -1 -116 -4 -6 -4 -11 1 -11 4 0 7 -28 5 -62 -1 -35 -2
-67 -2 -73 -1 -5 1 -25 3 -42 2 -18 -1 -33 -6 -33 -4 0 -5 -5 -1 -12 10 -16
11 -109 1 -115 -4 -2 -4 -10 0 -16 8 -14 8 -109 -1 -132 -3 -9 -2 -14 2 -11
10 6 6 -219 -4 -235 -4 -7 -3 -9 3 -6 11 7 11 -62 0 -80 -4 -7 -4 -14 0 -16
10 -6 8 -100 -1 -116 -4 -6 -4 -11 1 -11 10 0 8 -154 -3 -171 -4 -7 -3 -10 2
-6 11 7 10 -216 -2 -234 -4 -7 -3 -9 3 -6 11 7 11 -62 0 -80 -4 -7 -4 -14 0
-16 10 -6 7 -122 -3 -138 -4 -7 -3 -9 3 -6 6 4 8 -19 6 -61 -4 -76 -4 -101 0
-190 1 -35 -1 -66 -5 -68 -5 -3 -5 -11 -1 -17 8 -14 8 -109 -1 -132 -3 -9 -2
-14 2 -11 6 4 8 -82 3 -162 -1 -10 -14 -13 -48 -10 -45 3 -47 5 -55 39 -4 20
-9 47 -12 60 -3 13 -13 51 -22 84 -9 33 -17 65 -19 70 -1 6 -5 17 -8 25 -3 8
-17 45 -30 81 -14 36 -34 83 -45 105 -11 21 -21 44 -22 49 -2 12 -33 68 -41
75 -3 3 -20 30 -38 60 -45 73 -136 183 -203 245 -84 78 -117 105 -128 105 -5
0 -10 4 -10 8 0 11 -165 109 -250 149 -83 39 -255 98 -345 118 -38 8 -79 17
-90 20 -39 9 -101 19 -127 19 -16 1 -28 3 -28 6 0 3 -17 6 -38 7 -20 1 -89 5
-152 9 -174 11 -457 6 -540 -10 -14 -3 -45 -7 -70 -10 -25 -3 -56 -7 -70 -10
-14 -3 -41 -7 -60 -10 -29 -5 -130 -29 -165 -40 -5 -1 -30 -8 -55 -15 -197
-53 -519 -217 -625 -318 -8 -7 -16 -13 -19 -13 -15 0 -219 -199 -279 -271 -40
-47 -149 -205 -180 -259 -47 -83 -134 -264 -162 -340 -15 -41 -31 -84 -36 -95
-4 -11 -12 -36 -18 -55 -5 -19 -19 -68 -31 -109 -11 -40 -18 -76 -15 -79 2 -3
1 -10 -4 -16 -5 -6 -12 -27 -15 -46 -3 -19 -8 -46 -11 -60 -4 -14 -8 -34 -10
-45 -15 -84 -19 -114 -20 -137 0 -16 -2 -28 -5 -28 -3 0 -6 -12 -7 -27 0 -16
-3 -57 -7 -93 -3 -36 -9 -94 -12 -130 -7 -80 -8 -483 0 -565 2 -33 7 -89 10
-125 3 -36 7 -78 10 -95 2 -16 7 -52 11 -80 4 -27 9 -59 11 -70 13 -65 16 -83
19 -108 1 -15 5 -30 9 -34 3 -3 6 -19 6 -35 0 -15 4 -28 9 -28 4 0 8 -8 7 -17
-1 -18 19 -101 34 -138 4 -11 18 -51 30 -90 13 -38 30 -86 39 -105 8 -19 16
-40 17 -47 2 -13 106 -224 131 -268 10 -17 28 -45 41 -63 13 -17 20 -32 15
-32 -4 0 -3 -4 2 -8 6 -4 42 -50 82 -102 92 -122 201 -234 337 -348 16 -13 69
-50 120 -83 50 -32 96 -62 101 -67 17 -12 200 -100 256 -123 56 -22 222 -78
249 -84 8 -2 47 -11 85 -20 39 -9 79 -18 90 -19 11 -2 34 -6 50 -9 133 -27
322 -41 540 -40 177 0 309 8 325 18 6 3 10 1 10 -5 0 -6 5 -8 13 -3 6 4 21 8
32 9 11 1 36 4 55 7 19 3 55 9 80 12 72 10 74 10 88 18 6 5 12 6 12 4 0 -2 26
2 58 10 31 7 66 16 76 18 11 3 42 12 70 22 28 9 53 17 56 18 7 0 76 29 157 66
329 150 595 458 708 819 15 47 30 92 34 100 4 8 20 76 36 151 l27 135 42 -2
c22 -1 44 -3 47 -3 3 -1 6 -292 6 -648 0 -478 3 -647 12 -646 6 2 11 0 11 -5
0 -9 125 -6 141 4 7 4 10 3 7 -2 -4 -5 7 -9 22 -9 15 0 26 3 23 7 -2 5 7 4 21
-2 15 -5 28 -6 31 0 3 6 15 6 30 0 15 -6 27 -6 30 0 4 6 13 7 23 1 11 -6 24
-6 35 0 9 6 17 6 17 2 0 -10 75 -7 92 3 6 4 9 3 6 -2 -4 -5 7 -9 22 -9 15 0
26 3 23 7 -2 5 6 4 19 -1 13 -5 25 -9 28 -11 3 -1 18 3 33 9 16 6 26 8 24 3
-3 -4 8 -7 24 -7 16 0 29 4 29 8 0 5 5 5 11 2 15 -10 78 -12 73 -3 -3 5 6 4
19 -1 16 -6 28 -6 35 1 6 6 12 6 16 -1 5 -7 15 -7 32 -1 15 6 23 6 19 1 -3 -6
6 -6 24 -1 16 4 32 6 35 2 9 -8 65 -8 59 0 -2 5 7 4 21 -2 16 -6 26 -6 26 0 0
6 9 6 24 0 15 -5 27 -5 34 2 6 6 12 6 16 -1 5 -7 15 -7 31 -1 14 5 25 6 25 1
0 -5 16 -5 35 -1 19 4 35 4 35 -1 0 -5 11 -4 25 1 14 5 25 6 25 2 0 -4 11 -7
25 -7 14 0 25 3 25 7 0 4 11 3 25 -2 15 -6 26 -6 30 1 4 5 11 6 17 3 16 -10
68 -11 68 -1 0 4 8 3 18 -2 9 -5 19 -10 22 -12 3 -1 15 3 28 10 13 7 22 8 22
2 0 -7 9 -7 25 -1 14 5 25 6 25 1 0 -5 8 -7 19 -4 18 4 18 92 18 3219 l0 3214
-41 1 c-200 4 -1729 3 -1744 -1z m-956 -3143 c39 -2 76 -7 82 -11 7 -4 12 -2
12 4 0 6 4 9 8 6 5 -3 35 -8 67 -11 52 -6 143 -21 240 -40 39 -8 203 -73 235
-94 60 -39 132 -106 166 -156 69 -102 113 -243 118 -381 2 -27 5 -54 7 -60 4
-8 3 -199 -1 -199 0 0 -3 -29 -5 -65 -13 -243 -108 -438 -266 -545 -24 -17
-47 -34 -50 -38 -3 -5 -9 -8 -12 -8 -4 0 -26 -8 -49 -18 -61 -26 -158 -58
-193 -65 -16 -3 -41 -7 -55 -10 -74 -16 -214 -30 -302 -30 -43 -1 -78 -3 -78
-6 0 -3 -72 -5 -160 -5 -88 0 -160 2 -160 5 0 3 -35 5 -78 6 -86 0 -176 9
-255 25 -29 6 -63 12 -77 15 -86 16 -217 69 -290 117 -46 31 -150 133 -150
148 0 4 -6 14 -13 21 -31 32 -117 281 -102 296 3 3 0 11 -6 19 -9 10 -8 13 0
13 7 0 9 5 5 12 -5 7 -9 29 -11 48 -5 76 0 345 7 345 1 0 3 9 4 20 26 180 79
298 181 401 106 107 246 173 440 208 17 3 41 8 55 11 32 6 130 15 240 21 47 3
88 6 92 7 11 3 268 -2 354 -6z"/>
<path d="M12922 25830 c-4 -3 -7 -191 -7 -417 1 -365 -1 -413 -15 -414 -84 -4
-163 -3 -167 4 -2 4 -9 4 -16 0 -17 -10 -57 -10 -57 1 0 6 -5 5 -11 -1 -8 -8
-20 -8 -34 -3 -13 5 -25 6 -28 3 -10 -10 -167 -8 -167 2 0 5 -5 4 -11 -2 -8
-8 -20 -8 -34 -3 -13 5 -26 6 -29 2 -4 -3 -36 -5 -71 -4 -36 1 -65 -1 -66 -6
-7 -55 -2 -1465 5 -1470 15 -9 56 -9 56 0 0 4 11 3 25 -2 18 -7 25 -6 25 2 0
9 3 9 11 1 8 -8 20 -8 35 -3 15 6 24 6 24 0 0 -6 9 -6 25 0 14 5 25 6 25 2 0
-4 18 -7 40 -7 22 0 40 3 40 7 0 4 11 3 25 -2 16 -6 25 -6 25 1 0 6 7 6 18 1
18 -8 80 -7 89 2 3 2 16 1 29 -4 14 -6 26 -6 29 1 4 5 12 6 18 2 16 -10 47
-10 75 -1 13 5 21 5 19 0 -3 -4 8 -7 24 -7 16 0 29 4 29 8 0 5 4 6 8 3 4 -2 8
-369 7 -815 0 -446 4 -811 8 -811 4 0 3 -8 -2 -19 -6 -10 -8 -20 -6 -23 3 -3
7 -36 10 -74 8 -113 21 -207 45 -324 6 -30 14 -66 16 -79 3 -14 7 -28 10 -33
3 -4 7 -17 9 -29 11 -55 73 -214 118 -299 75 -145 76 -147 92 -160 8 -7 15
-19 15 -26 0 -8 4 -14 8 -14 4 0 16 -14 26 -30 21 -36 232 -250 246 -250 6 0
18 -8 28 -17 25 -25 162 -115 162 -107 0 4 8 0 18 -8 9 -8 38 -24 65 -36 26
-12 66 -31 90 -42 74 -34 246 -87 362 -111 33 -7 62 -13 65 -14 7 -2 97 -15
140 -20 76 -10 169 -17 245 -19 45 -1 86 -5 92 -9 6 -4 14 -3 18 3 4 6 12 7
24 0 12 -6 22 -5 28 1 8 8 13 8 17 0 5 -7 15 -7 31 -1 14 5 25 6 25 2 0 -4 11
-7 25 -7 14 0 25 3 25 7 0 4 10 4 23 0 22 -9 75 -7 84 2 3 3 16 1 29 -4 14 -6
26 -6 29 1 4 5 12 6 18 2 6 -4 21 -7 32 -7 11 0 26 3 32 7 6 4 14 3 18 -2 3
-6 15 -7 28 -2 12 5 31 5 42 1 11 -4 25 -3 32 2 7 5 14 5 17 -1 5 -7 15 -7 32
-1 14 6 23 7 21 2 -3 -4 8 -7 24 -7 16 0 29 4 29 8 0 5 5 5 11 2 15 -10 78
-12 73 -3 -3 5 6 4 19 -1 16 -6 28 -6 35 1 6 6 12 6 16 -1 5 -7 15 -7 32 -1
15 6 23 6 19 1 -3 -6 6 -6 24 -1 16 4 32 6 35 2 9 -8 65 -8 59 0 -2 5 7 4 21
-2 16 -6 26 -6 26 0 0 6 9 6 24 0 15 -5 27 -5 34 2 6 6 12 6 16 -1 5 -7 15 -7
31 -1 14 5 25 6 25 2 0 -9 64 -7 79 2 5 4 12 2 15 -2 6 -10 55 -4 57 7 4 25 3
1604 -1 1609 -3 4 -230 7 -505 8 -581 0 -615 3 -717 55 -115 59 -154 154 -169
404 -1 6 1 25 4 43 2 17 0 32 -6 32 -6 0 -6 5 -1 13 5 6 8 50 7 97 -3 84 -3
93 -3 150 0 17 0 36 0 43 0 6 1 23 3 37 2 14 -1 31 -6 38 -6 7 -6 12 0 12 10
0 10 60 -1 78 -4 7 -3 12 1 12 5 0 8 19 6 43 -2 23 -3 48 -3 55 0 15 0 98 0
115 0 6 1 23 3 37 2 14 -1 31 -6 38 -6 7 -6 12 0 12 5 0 8 19 6 43 -2 23 -3
47 -3 52 0 6 1 29 3 53 2 23 -1 42 -6 42 -6 0 -6 5 0 13 5 6 7 37 6 67 -5 91
-2 142 8 138 3 -2 13 3 22 10 10 8 17 9 21 3 5 -7 15 -7 32 -1 14 6 23 7 21 2
-3 -4 8 -7 24 -7 16 0 29 4 29 10 0 5 5 4 11 -2 8 -8 20 -8 35 -3 15 6 24 6
24 0 0 -6 9 -6 25 0 14 5 25 6 25 2 0 -4 18 -7 40 -7 22 0 40 3 40 7 0 4 11 3
25 -2 16 -6 25 -6 25 1 0 6 7 6 18 1 18 -8 80 -7 89 2 3 2 16 1 29 -4 14 -6
26 -6 29 1 4 5 11 6 17 2 7 -3 26 -6 43 -6 17 0 36 3 43 6 6 4 13 3 17 -2 3
-6 15 -7 28 -2 12 5 31 5 42 1 11 -4 25 -3 32 2 7 5 14 5 17 -1 5 -7 15 -7 31
-1 14 5 25 6 25 2 0 -4 29 -7 65 -7 36 0 65 3 65 7 0 4 11 3 25 -2 16 -6 25
-6 25 1 0 6 7 6 18 1 18 -8 80 -7 89 2 3 2 15 1 28 -4 14 -5 26 -5 33 2 6 6
12 6 16 0 4 -7 17 -7 35 -2 15 4 34 4 42 0 7 -5 21 -4 31 1 11 6 18 6 18 0 0
-5 8 -7 18 -5 16 5 17 48 15 737 0 403 -1 738 -2 745 -1 7 -6 10 -12 6 -16 -9
-160 -11 -166 -1 -2 4 -9 4 -16 0 -17 -10 -57 -10 -57 1 0 6 -5 5 -11 -1 -8
-8 -20 -8 -34 -3 -13 5 -25 6 -28 3 -9 -8 -168 -9 -174 0 -2 4 -9 4 -16 0 -17
-10 -57 -10 -57 1 0 6 -5 5 -11 -1 -8 -8 -20 -8 -34 -3 -13 5 -25 6 -28 3 -10
-10 -167 -8 -167 2 0 5 -5 4 -11 -2 -8 -8 -20 -8 -34 -3 -13 5 -25 6 -29 3 -8
-8 -160 -8 -174 1 -7 4 -12 3 -12 -3 0 -7 -8 -7 -24 -1 -13 5 -26 6 -29 3 -9
-8 -168 -9 -174 0 -2 4 -9 4 -16 0 -17 -11 -58 -10 -65 2 -4 5 -7 19 -7 30 0
11 -4 26 -8 33 -5 6 -5 12 0 12 4 0 8 16 8 35 0 19 -4 35 -8 35 -5 0 -5 5 -1
12 11 17 11 108 0 108 -5 0 -5 5 0 13 11 15 11 67 1 85 -5 6 -5 12 0 12 4 0 8
29 8 65 0 36 -4 65 -8 65 -5 0 -5 6 0 13 10 16 10 37 1 64 -4 12 -4 24 0 27 9
6 7 59 -3 75 -3 6 -2 11 2 11 10 0 9 118 -1 127 -8 8 -1784 11 -1794 3z"/>
<path d="M2397 25094 c-1 -1 -56 -4 -122 -8 -66 -3 -131 -8 -145 -10 -14 -3
-50 -7 -80 -10 -30 -4 -65 -8 -76 -10 -12 -3 -39 -7 -60 -10 -22 -4 -77 -16
-124 -27 -47 -11 -95 -22 -107 -25 -37 -7 -244 -79 -298 -104 -123 -55 -312
-157 -335 -180 -3 -3 -24 -18 -48 -34 -23 -16 -77 -59 -120 -95 -144 -122
-225 -215 -334 -379 -43 -65 -83 -123 -88 -129 -6 -7 -8 -13 -5 -13 3 0 -12
-35 -34 -77 -43 -85 -89 -195 -96 -231 -2 -12 -7 -28 -12 -35 -4 -6 -8 -16 -9
-22 -1 -5 -13 -50 -27 -100 -26 -95 -36 -138 -43 -195 -2 -19 -8 -57 -14 -85
-33 -179 -33 -604 0 -835 6 -36 11 -76 13 -90 1 -14 6 -31 10 -37 5 -7 6 -13
4 -13 -4 0 1 -30 19 -110 7 -35 34 -132 41 -150 3 -8 7 -19 8 -25 1 -5 3 -13
5 -17 1 -5 3 -11 4 -15 2 -9 42 -113 62 -160 33 -77 49 -110 65 -133 9 -14 18
-29 19 -35 1 -5 15 -32 33 -60 17 -27 31 -52 32 -55 0 -3 33 -48 72 -101 87
-116 297 -329 323 -329 6 0 10 -4 10 -8 0 -4 12 -15 28 -24 15 -9 38 -26 51
-37 13 -12 30 -21 38 -21 7 0 13 -4 13 -9 0 -5 12 -16 28 -24 15 -7 72 -37
126 -66 94 -50 198 -94 212 -91 4 1 10 -2 13 -7 5 -7 148 -56 201 -68 8 -2 47
-11 85 -20 39 -9 79 -19 90 -21 11 -2 31 -6 45 -9 14 -3 45 -7 70 -11 25 -3
59 -7 75 -10 40 -5 125 -13 205 -19 91 -7 339 -6 440 1 47 4 104 7 127 8 24 0
43 3 43 7 0 3 10 6 23 6 52 3 107 13 187 32 47 12 96 24 110 27 77 17 330 121
350 143 3 3 14 11 25 17 71 39 77 43 170 120 69 58 102 91 150 149 58 69 75
93 75 103 0 6 4 12 9 14 12 4 81 126 81 143 0 7 7 18 15 25 9 7 13 15 11 18
-3 3 1 17 8 31 14 25 22 47 25 64 0 4 7 23 15 42 9 20 15 38 16 40 0 3 1 7 1
10 3 11 5 22 19 88 15 73 26 82 86 75 l28 -3 -1 -605 c-1 -333 -4 -630 -7
-660 -16 -160 -18 -177 -41 -265 -20 -78 -65 -173 -99 -208 -14 -15 -26 -31
-26 -35 0 -23 -175 -114 -241 -126 -13 -3 -24 -5 -24 -6 0 -2 -36 -9 -80 -15
-22 -3 -56 -8 -75 -10 -27 -4 -293 -12 -509 -15 -52 -1 -287 10 -331 15 -25 3
-67 7 -95 9 -27 2 -50 5 -50 6 0 1 -11 3 -25 5 -33 4 -75 12 -103 21 -35 10
-131 57 -142 68 -73 78 -91 129 -99 286 -2 36 -4 68 -5 73 -1 4 -406 7 -901 7
l-901 0 6 -117 c9 -172 9 -171 32 -288 2 -11 6 -36 9 -55 3 -19 9 -39 12 -45
3 -5 7 -16 8 -25 2 -19 42 -149 54 -175 5 -11 22 -51 39 -90 33 -77 57 -124
85 -170 47 -75 72 -111 81 -117 5 -4 7 -8 2 -8 -4 0 1 -8 10 -18 10 -11 34
-39 53 -63 63 -79 208 -219 280 -269 19 -13 37 -27 40 -30 11 -14 129 -90 139
-90 6 0 11 -4 11 -10 0 -5 4 -10 9 -10 4 0 41 -18 82 -41 41 -22 79 -41 84
-42 6 -1 12 -4 15 -7 3 -3 25 -14 50 -25 25 -10 64 -27 87 -37 23 -10 44 -18
47 -18 2 0 17 -5 33 -12 15 -6 30 -12 33 -12 3 -1 43 -14 90 -28 84 -27 175
-52 175 -48 0 1 13 -3 28 -9 15 -6 42 -13 60 -16 18 -4 52 -11 77 -16 25 -6
56 -12 70 -15 14 -2 41 -6 60 -9 19 -3 49 -8 65 -10 17 -2 44 -6 60 -9 36 -6
114 -15 175 -21 25 -2 81 -7 125 -11 169 -15 755 -8 900 11 41 5 142 17 185
21 34 3 91 11 134 20 23 5 58 11 109 20 17 3 50 10 72 15 22 6 49 12 60 13 53
9 302 82 327 96 10 6 22 10 27 10 5 0 26 8 47 17 22 9 44 18 51 19 21 4 268
127 286 142 9 8 17 12 17 9 0 -6 220 139 230 152 3 3 23 19 45 36 47 34 239
226 275 274 14 18 36 47 50 65 56 69 139 205 193 317 52 107 107 242 107 264
0 8 4 15 8 15 5 0 9 6 9 13 0 6 12 53 27 102 24 85 60 246 71 324 3 20 7 47
10 61 2 14 6 56 10 94 4 38 9 79 13 90 3 12 6 996 8 2188 2 1865 0 2166 -12
2161 -8 -3 -14 0 -14 7 0 6 -5 8 -12 4 -18 -11 -58 -11 -58 0 0 6 -5 5 -11 -1
-8 -8 -20 -8 -34 -3 -13 5 -25 6 -28 3 -9 -8 -168 -9 -174 0 -2 4 -9 4 -16 0
-17 -10 -57 -10 -57 1 0 6 -5 5 -11 -1 -8 -8 -20 -8 -34 -3 -13 5 -25 6 -28 3
-9 -8 -168 -9 -174 0 -2 4 -9 4 -16 0 -17 -10 -57 -10 -57 1 0 6 -5 5 -11 -1
-8 -8 -20 -8 -34 -3 -13 5 -25 6 -28 3 -9 -8 -168 -9 -174 0 -2 4 -9 4 -16 0
-17 -10 -57 -10 -57 1 0 6 -5 5 -11 -1 -8 -8 -20 -8 -34 -3 -13 5 -25 6 -28 3
-9 -8 -168 -9 -174 0 -2 4 -9 4 -16 0 -17 -10 -57 -10 -57 1 0 6 -5 5 -11 -1
-8 -8 -20 -8 -34 -3 -13 5 -25 6 -29 3 -8 -8 -160 -8 -173 0 -6 4 -14 3 -17
-2 -3 -5 -15 -7 -26 -4 -20 5 -20 0 -21 -498 0 -277 0 -532 1 -566 1 -55 -1
-63 -17 -64 -10 0 -26 -2 -37 -4 -39 -8 -47 5 -62 100 -14 87 -126 385 -152
405 -4 3 -16 21 -26 40 -65 117 -226 284 -365 378 -94 63 -235 136 -326 167
-27 9 -59 21 -70 26 -11 5 -29 11 -40 12 -11 2 -27 7 -35 10 -13 5 -78 21
-135 33 -63 14 -125 25 -169 30 -28 3 -64 7 -81 9 -72 11 -430 26 -438 19z
m933 -1561 c52 -1 118 -4 145 -7 28 -3 80 -7 116 -10 89 -7 105 -10 275 -55
52 -14 161 -71 204 -108 69 -59 133 -172 146 -258 26 -166 23 -359 -7 -454
-13 -41 -16 -52 -17 -65 0 -5 -4 -12 -9 -15 -4 -3 -17 -22 -27 -41 -30 -54
-107 -122 -178 -157 -92 -47 -263 -89 -393 -98 -22 -2 -40 -4 -40 -5 0 -6
-225 -13 -425 -13 -275 0 -390 5 -390 16 0 5 -4 6 -10 2 -8 -5 -106 5 -190 21
-53 9 -190 54 -232 75 -61 31 -125 78 -153 112 -15 17 -33 40 -41 50 -8 9 -14
23 -14 31 0 7 -7 19 -15 26 -8 6 -14 15 -13 18 1 4 -1 14 -4 22 -18 53 -28 90
-32 129 -3 24 -7 46 -10 49 -3 2 -1 13 4 23 6 10 6 20 2 23 -9 5 -7 126 3 206
7 56 45 180 55 180 4 0 11 11 14 25 4 14 11 25 16 25 6 0 10 5 10 11 0 10 32
43 84 86 16 14 130 73 139 73 3 0 18 5 34 12 15 6 37 13 48 14 11 2 31 7 45
11 14 4 30 7 35 8 6 1 30 5 54 9 24 5 60 10 80 11 20 2 36 4 36 5 0 5 106 10
309 14 125 3 231 8 234 11 3 3 8 2 11 -3 3 -4 49 -8 101 -9z"/>
<path d="M9177 25094 c-1 -1 -54 -5 -117 -8 -183 -8 -264 -17 -402 -42 -18 -3
-42 -7 -53 -9 -39 -6 -91 -16 -125 -25 -19 -5 -51 -12 -70 -15 -19 -3 -39 -10
-46 -15 -6 -6 -13 -7 -16 -4 -3 3 -31 -4 -62 -15 -31 -11 -56 -17 -56 -15 0 3
-10 -1 -22 -8 -13 -6 -30 -13 -39 -15 -26 -4 -189 -68 -274 -108 -44 -20 -89
-41 -100 -46 -11 -5 -27 -13 -35 -18 -8 -6 -49 -29 -90 -52 -41 -23 -76 -46
-78 -51 -2 -4 -8 -8 -13 -8 -9 0 -179 -119 -209 -146 -8 -8 -39 -35 -69 -61
-113 -100 -226 -221 -302 -324 -21 -30 -44 -60 -50 -67 -50 -60 -178 -294
-239 -437 -28 -66 -90 -255 -105 -325 -2 -8 -8 -30 -14 -49 -6 -18 -10 -36 -9
-40 0 -3 -1 -8 -2 -11 -4 -11 -26 -142 -36 -220 -5 -40 -16 -161 -18 -205 -1
-22 -5 -46 -9 -52 -5 -7 -5 -13 0 -13 4 0 8 -36 8 -80 0 -44 -4 -80 -8 -80 -5
0 -5 -4 -2 -10 3 -5 8 -64 10 -131 3 -67 7 -133 9 -148 5 -26 18 -164 19 -188
0 -7 3 -13 6 -13 3 0 6 -12 7 -27 1 -41 15 -124 25 -152 5 -13 7 -26 4 -29 -2
-3 0 -11 6 -19 6 -7 9 -13 6 -13 -3 0 -1 -15 5 -32 5 -18 11 -42 13 -53 4 -27
70 -220 91 -270 10 -22 18 -42 19 -45 5 -36 193 -370 225 -400 3 -3 21 -25 40
-50 79 -103 234 -259 325 -326 33 -25 69 -52 79 -61 26 -21 204 -133 211 -133
4 0 27 -12 53 -27 26 -16 49 -28 52 -28 3 0 25 -10 50 -22 38 -19 91 -42 110
-48 3 -1 19 -7 35 -14 69 -29 248 -85 360 -112 111 -27 105 -26 155 -35 25 -4
47 -8 50 -9 3 0 26 -4 51 -8 25 -4 59 -10 75 -13 16 -3 45 -7 64 -9 90 -11
158 -18 190 -20 19 -2 35 -4 35 -5 0 -5 275 -13 435 -13 202 1 441 13 535 27
17 3 53 8 80 11 28 4 61 9 75 11 14 3 41 7 60 10 60 8 347 74 390 89 23 8 46
12 51 9 5 -3 9 0 9 5 0 6 3 10 8 9 12 -3 147 44 242 85 14 5 30 11 35 12 22 5
110 50 117 59 4 6 8 8 8 4 0 -14 300 160 300 174 0 4 6 8 13 8 26 1 327 263
327 286 0 2 8 12 18 22 27 29 55 64 82 102 13 19 27 37 30 40 4 3 10 12 13 20
4 8 18 33 32 55 56 90 152 307 159 360 1 11 8 38 14 60 6 22 14 57 18 79 3 21
8 48 10 60 11 48 19 236 15 329 l-1 22 -895 -1 c-493 -1 -897 -3 -899 -5 -2
-2 -7 -51 -10 -108 -4 -85 -10 -114 -32 -160 -30 -63 -40 -74 -104 -117 -78
-53 -236 -100 -375 -111 -33 -2 -85 -6 -115 -9 -78 -7 -500 -10 -500 -4 0 3
-42 6 -92 7 -51 2 -99 5 -108 9 -8 3 -34 8 -57 10 -68 7 -212 52 -283 90 -78
41 -143 100 -191 174 -31 49 -59 106 -66 135 -1 6 -9 35 -17 65 -8 30 -16 70
-18 88 -1 17 -5 32 -8 32 -8 0 -11 130 -2 131 48 6 182 2 182 -6 0 -6 3 -6 8
0 9 14 165 14 174 0 5 -6 8 -6 8 0 0 10 164 11 223 2 15 -2 29 -1 31 2 4 6
214 7 226 1 3 -1 10 -1 15 0 29 7 142 5 153 -3 6 -5 12 -5 12 -1 0 13 103 11
112 -1 5 -7 8 -6 8 0 0 14 162 14 172 0 5 -7 8 -7 8 0 0 9 146 13 175 5 6 -1
12 -1 15 0 20 7 80 4 80 -4 0 -8 3 -8 8 -1 6 9 185 13 202 5 3 -1 10 -1 15 0
29 7 142 5 153 -3 6 -5 12 -5 12 -1 0 8 124 11 140 4 3 -1 10 -1 15 0 29 7
142 5 153 -3 6 -5 12 -5 12 -1 0 13 103 11 112 -1 5 -7 8 -6 8 0 0 14 162 14
172 0 5 -7 8 -7 8 0 0 10 164 11 223 2 15 -2 29 -1 31 2 4 6 214 7 226 1 3 -1
10 -1 15 0 29 7 142 5 153 -3 6 -5 12 -5 12 -1 0 13 103 11 112 -1 5 -7 8 -7
8 0 0 14 170 14 170 0 0 -7 3 -7 8 0 4 6 53 10 112 10 98 0 105 1 107 20 19
226 22 279 22 440 1 169 -3 237 -14 254 -6 10 -4 12 5 6 8 -5 11 -4 6 3 -3 6
-8 32 -11 59 -10 95 -16 138 -20 153 -3 8 -7 32 -9 54 -3 21 -8 46 -10 55 -3
9 -7 27 -10 41 -20 107 -128 434 -147 446 -5 3 -9 14 -9 25 0 10 -4 19 -8 19
-5 0 -15 18 -22 40 -7 22 -17 40 -22 40 -4 0 -8 5 -8 10 0 23 -147 245 -222
335 -56 67 -203 210 -280 271 -164 132 -368 252 -553 326 -27 11 -63 25 -80
33 -46 19 -120 45 -145 50 -12 2 -28 9 -36 16 -8 6 -14 9 -14 6 0 -3 -24 1
-52 10 -29 8 -57 16 -63 17 -5 1 -19 5 -30 9 -11 3 -33 9 -50 12 -16 3 -41 8
-55 11 -14 2 -31 7 -39 9 -7 3 -32 8 -55 10 -46 6 -60 9 -96 19 -25 6 -73 12
-185 21 -33 3 -73 7 -90 10 -58 10 -501 26 -508 19z m233 -1388 c80 -3 156 -8
170 -10 14 -3 43 -7 65 -10 38 -5 58 -9 123 -22 43 -8 46 -9 57 -15 6 -4 23
-9 40 -13 47 -12 136 -58 185 -96 59 -45 83 -71 117 -122 26 -38 40 -68 74
-157 6 -13 12 -42 15 -65 l4 -41 -1017 0 -1018 0 2 26 c1 14 11 55 23 90 51
152 142 258 281 327 47 23 96 44 110 46 13 3 25 5 27 7 1 1 7 3 12 4 6 1 13 4
18 5 4 1 10 2 14 1 4 0 19 4 33 9 13 5 53 12 87 16 35 3 66 8 70 11 4 2 78 6
165 10 87 3 159 7 161 8 2 2 11 1 20 -1 9 -1 82 -5 162 -8z"/>
<path d="M24885 25092 c-1 -2 -43 -5 -91 -7 -49 -2 -89 -4 -89 -5 0 -3 -44
-10 -97 -14 -32 -3 -61 -7 -65 -9 -5 -3 -26 -8 -48 -11 -22 -4 -48 -9 -57 -12
-9 -3 -26 -7 -39 -9 -28 -6 -129 -34 -149 -42 -8 -3 -19 -5 -24 -4 -4 1 -13
-2 -20 -7 -6 -5 -29 -15 -51 -22 -83 -27 -325 -151 -333 -172 -2 -4 -8 -8 -13
-8 -9 0 -50 -29 -123 -90 -70 -57 -246 -242 -246 -259 0 -3 -11 -18 -25 -33
-14 -15 -25 -30 -25 -33 0 -4 -13 -26 -30 -50 -37 -54 -110 -199 -143 -285
-35 -89 -77 -227 -77 -251 0 -10 -4 -19 -8 -19 -4 0 -8 -8 -8 -17 -1 -19 -11
-81 -24 -152 -7 -40 -31 -72 -38 -52 -1 4 -14 6 -28 3 -15 -3 -29 0 -33 6 -3
5 -6 335 -6 731 1 397 -2 722 -5 722 -3 1 -18 3 -34 5 -16 2 -35 5 -43 8 -7 3
-13 2 -13 -2 0 -7 -64 -8 -95 -2 -5 1 -12 1 -15 0 -14 -6 -90 -4 -90 2 0 4
-10 4 -22 0 -20 -7 -85 -8 -113 -2 -5 1 -12 1 -15 0 -14 -6 -90 -4 -90 2 0 4
-10 4 -22 0 -20 -7 -85 -8 -113 -2 -5 1 -12 1 -15 0 -14 -6 -90 -4 -90 2 0 4
-10 4 -22 0 -20 -7 -85 -8 -113 -2 -5 1 -12 1 -15 0 -14 -6 -90 -4 -90 2 0 4
-10 4 -22 0 -20 -7 -85 -8 -113 -2 -5 1 -12 1 -15 0 -14 -6 -90 -4 -90 2 0 4
-10 4 -22 0 -20 -7 -85 -8 -113 -2 -5 1 -12 1 -15 0 -15 -6 -90 -4 -90 3 0 5
-5 5 -12 1 -6 -4 -49 -8 -96 -8 l-85 -1 0 -2400 c1 -1320 2 -2407 2 -2416 1
-9 10 -19 21 -22 11 -3 18 -1 14 4 -3 5 5 5 19 0 16 -6 28 -6 35 1 6 6 12 6
16 0 4 -7 17 -7 35 -2 16 4 32 6 35 2 9 -8 65 -8 59 0 -2 5 7 4 21 -2 16 -6
26 -6 26 0 0 6 9 6 24 0 15 -5 27 -5 34 2 6 6 12 6 16 -1 5 -7 15 -7 31 -1 14
5 25 6 25 1 0 -5 16 -5 35 -1 19 4 35 4 35 -1 0 -5 11 -4 25 1 14 5 25 6 25 2
0 -4 11 -7 25 -7 14 0 25 3 25 7 0 4 11 3 25 -2 15 -6 26 -6 30 1 4 5 11 6 17
3 16 -10 68 -11 68 -1 0 4 8 3 18 -2 25 -13 25 -13 55 -2 16 6 26 8 24 3 -3
-4 8 -7 24 -7 16 0 29 4 29 8 0 5 5 5 11 2 15 -10 78 -12 73 -3 -3 5 6 4 20
-2 17 -6 27 -6 32 1 4 7 10 7 16 1 7 -7 19 -7 35 -1 13 5 22 6 20 1 -3 -4 24
-7 59 -7 35 0 64 4 64 8 0 5 5 5 11 2 16 -10 79 -12 79 -2 0 4 9 3 19 -3 13
-7 22 -7 26 0 4 6 13 7 24 1 10 -6 23 -6 31 -1 8 5 21 5 30 0 9 -5 23 -4 33 1
9 6 17 6 17 2 0 -4 13 -8 29 -8 16 0 27 4 24 9 -4 5 -1 6 5 2 16 -10 91 -13
86 -4 -3 4 6 4 20 -2 18 -6 26 -6 26 1 0 6 5 7 10 4 15 -9 100 -11 100 -3 0 4
7 5 15 2 11 -4 15 1 15 17 0 13 2 620 4 1349 2 729 6 1343 9 1365 6 41 18 102
23 120 2 6 6 23 9 39 9 42 93 206 106 206 3 0 27 20 53 45 27 24 64 50 82 57
19 7 34 15 34 18 0 6 52 25 93 36 4 1 9 3 12 4 3 1 10 4 15 5 6 1 11 3 13 5 3
3 28 8 72 15 22 3 51 8 65 11 27 5 98 12 171 18 25 1 51 6 58 10 6 4 11 3 11
-2 0 -5 10 -7 23 -5 35 6 307 9 307 3 0 -3 26 -6 57 -7 163 -5 352 -48 478
-109 92 -45 232 -192 250 -264 1 -3 7 -17 13 -32 17 -40 40 -127 48 -178 3
-25 9 -54 12 -65 3 -11 6 -612 8 -1335 1 -723 3 -1319 3 -1325 1 -12 51 -14
51 -2 0 4 8 3 18 -2 13 -7 22 -7 29 0 7 7 13 7 17 1 4 -7 17 -7 35 -2 16 4 32
6 35 2 9 -8 65 -8 59 0 -2 5 7 4 21 -2 16 -6 26 -6 26 0 0 6 9 6 24 0 15 -5
27 -5 34 2 6 6 12 6 16 -1 5 -7 15 -7 31 -1 14 5 25 6 25 1 0 -5 16 -5 35 -1
19 4 35 4 35 -1 0 -5 11 -4 25 1 14 5 25 6 25 2 0 -4 11 -7 25 -7 14 0 25 3
25 7 0 4 11 3 25 -2 15 -6 26 -6 30 1 4 5 11 6 17 3 16 -10 68 -11 68 -1 0 4
10 2 23 -4 12 -7 22 -12 22 -11 0 0 13 5 28 11 16 6 26 8 24 3 -3 -4 8 -7 24
-7 16 0 29 4 29 8 0 5 5 5 11 2 15 -10 78 -12 73 -3 -3 5 6 4 19 -1 16 -6 28
-6 35 1 6 6 12 6 16 -1 5 -7 15 -7 32 -1 14 6 23 7 21 2 -3 -4 24 -7 59 -7 35
0 64 4 64 8 0 5 5 5 11 2 16 -10 79 -12 79 -2 0 4 9 3 19 -3 13 -7 22 -7 26 0
4 6 13 7 24 1 9 -5 23 -6 31 -1 7 4 23 4 35 0 14 -5 27 -4 33 2 6 6 12 6 16
-1 5 -7 15 -7 31 -1 14 5 25 6 25 2 0 -9 76 -6 92 4 6 4 9 3 6 -2 -4 -5 7 -9
22 -9 15 0 26 4 23 9 -4 5 -1 6 5 2 17 -10 82 -14 88 -4 3 5 10 6 15 3 11 -8
10 -193 11 1595 0 1401 -3 1731 -17 1802 -3 12 -8 46 -11 73 -4 28 -10 51 -15
53 -4 2 -6 9 -3 17 9 22 -53 251 -93 345 -52 123 -139 287 -170 318 -7 7 -13
17 -13 22 0 5 -6 15 -13 22 -6 7 -32 38 -57 68 -50 61 -178 190 -189 190 -3 0
-13 9 -21 20 -8 11 -20 20 -27 20 -7 0 -13 4 -13 8 0 4 -18 19 -40 32 -22 14
-40 28 -40 33 0 4 -5 7 -11 7 -6 0 -23 9 -37 19 -42 29 -225 121 -242 121 -9
0 -20 4 -25 8 -12 11 -84 39 -117 47 -13 2 -48 12 -78 21 -30 9 -73 20 -95 25
-22 5 -49 11 -60 14 -11 2 -36 7 -55 9 -19 3 -48 8 -65 11 -16 4 -48 8 -70 10
-22 1 -40 3 -40 4 0 7 -433 20 -440 13z"/>
<path d="M36077 25094 c-1 -1 -58 -5 -127 -8 -69 -4 -147 -9 -175 -13 -27 -3
-65 -6 -82 -6 -18 -1 -33 -4 -33 -7 0 -3 -12 -6 -27 -6 -73 -4 -306 -54 -454
-98 -110 -33 -270 -89 -293 -103 -6 -4 -20 -9 -30 -10 -11 -2 -27 -10 -36 -18
-9 -8 -21 -15 -27 -15 -18 0 -210 -103 -281 -151 -24 -16 -45 -29 -47 -29 -6
0 -105 -70 -121 -85 -6 -5 -23 -19 -39 -30 -15 -11 -39 -29 -52 -40 -28 -22
-262 -255 -278 -277 -24 -32 -91 -113 -96 -118 -3 -3 -8 -9 -10 -15 -2 -5 -30
-49 -61 -96 -56 -84 -158 -280 -193 -369 -9 -25 -21 -53 -26 -62 -5 -10 -9
-22 -9 -27 0 -5 -5 -22 -12 -38 -13 -33 -11 -26 -27 -83 -6 -25 -16 -56 -21
-70 -5 -14 -11 -36 -14 -50 -2 -14 -11 -56 -20 -95 -8 -38 -17 -86 -20 -105
-3 -19 -8 -51 -11 -70 -8 -52 -16 -128 -19 -185 -1 -28 -5 -56 -10 -63 -4 -7
-2 -12 4 -12 7 0 8 -6 2 -17 -18 -39 -2 -431 28 -653 12 -89 12 -88 44 -241
16 -80 19 -91 32 -124 4 -11 8 -26 10 -34 1 -8 6 -26 10 -40 4 -14 7 -29 6
-33 -1 -5 3 -8 10 -8 6 0 9 -3 5 -6 -6 -7 30 -113 44 -129 5 -5 9 -15 9 -23 0
-16 118 -258 134 -275 6 -7 20 -29 31 -50 11 -21 28 -47 38 -57 9 -11 17 -23
17 -29 0 -5 3 -11 8 -13 4 -1 29 -32 56 -68 54 -70 230 -250 284 -290 19 -14
41 -32 50 -41 54 -50 337 -222 388 -235 13 -3 24 -10 24 -15 0 -5 7 -9 14 -9
8 0 35 -11 60 -24 26 -14 46 -23 46 -21 0 2 30 -9 68 -24 37 -15 72 -29 77
-31 6 -1 15 -4 20 -6 17 -5 158 -45 210 -59 47 -13 62 -16 133 -30 15 -3 34
-8 42 -10 8 -3 33 -7 55 -10 22 -3 51 -8 65 -11 13 -3 40 -7 60 -10 19 -2 51
-7 70 -10 40 -6 109 -14 160 -18 20 -1 41 -6 48 -10 7 -4 12 -2 12 4 0 6 5 8
10 5 38 -23 624 -24 855 -1 111 11 165 17 220 26 33 6 71 12 85 14 42 7 93 16
125 23 17 3 39 7 50 9 11 1 20 3 20 4 0 1 7 3 15 5 39 8 72 15 97 21 15 3 30
7 35 10 4 3 16 7 26 9 68 13 328 103 412 143 19 9 37 17 40 17 3 1 34 16 70
35 36 19 73 38 83 42 20 8 229 139 237 147 3 4 23 19 45 36 85 63 263 235 315
304 14 19 33 42 43 52 9 11 14 19 10 19 -3 0 3 10 14 23 67 74 196 350 218
465 2 9 4 17 5 17 3 0 9 31 35 170 3 17 7 78 10 138 2 59 6 111 10 116 3 5 1
12 -3 15 -5 3 -7 16 -5 30 3 13 -1 27 -8 31 -16 10 -1776 11 -1786 1 -5 -4 -8
-40 -9 -80 -1 -94 -10 -140 -39 -197 -34 -67 -143 -149 -215 -163 -8 -1 -35
-9 -60 -16 -58 -17 -53 -16 -185 -35 -169 -24 -651 -24 -820 1 -16 2 -50 7
-75 10 -25 4 -53 11 -63 16 -10 5 -21 7 -24 5 -7 -7 -109 30 -183 66 -62 31
-200 154 -200 178 0 6 -9 23 -20 39 -11 15 -17 30 -13 34 3 3 1 6 -5 6 -7 0
-11 3 -10 8 1 4 -5 30 -15 57 -9 28 -18 61 -21 75 -3 14 -7 36 -10 50 -11 48
-18 180 -9 181 51 6 153 2 153 -6 0 -6 3 -6 8 0 9 14 165 14 174 0 5 -6 8 -6
8 0 0 10 164 11 223 2 15 -2 29 -1 31 2 4 6 293 6 306 1 3 -1 10 -1 15 0 32 8
395 4 395 -5 0 -7 3 -7 8 0 6 8 184 12 217 5 6 -1 15 -1 20 0 33 8 365 4 365
-5 0 -7 3 -7 8 0 6 8 213 12 247 5 6 -1 15 -1 20 0 26 7 427 4 432 -3 2 -4 9
-4 16 0 15 9 168 10 174 0 2 -4 9 -4 16 0 15 9 428 10 434 0 2 -4 10 -4 16 0
17 10 87 11 93 1 3 -5 10 -5 17 -1 17 10 140 11 155 0 8 -6 12 -6 12 1 0 6 11
9 26 6 36 -7 38 -7 47 -4 4 1 34 4 67 5 33 1 66 3 73 4 7 1 13 18 13 44 1 23
5 80 9 127 3 47 8 110 9 140 1 31 6 62 11 69 5 8 4 12 -1 8 -5 -3 -9 42 -9
106 -1 136 -12 298 -29 407 -42 271 -122 525 -228 724 -15 28 -33 63 -39 79
-6 15 -15 27 -20 27 -5 0 -9 5 -9 10 0 10 -96 158 -109 170 -3 3 -19 23 -36
45 -16 21 -36 47 -45 56 -111 117 -164 171 -204 204 -26 22 -61 52 -79 67 -18
15 -35 28 -39 28 -4 0 -13 6 -20 13 -17 17 -121 87 -179 121 -71 42 -322 163
-354 172 -5 1 -46 16 -90 33 -44 17 -89 32 -100 34 -11 1 -24 5 -30 8 -5 4
-50 16 -100 29 -49 12 -97 25 -105 27 -8 3 -22 7 -30 8 -8 1 -42 8 -74 15 -33
6 -69 13 -80 15 -12 2 -38 6 -58 9 -21 3 -53 8 -70 10 -18 3 -53 7 -78 11
-104 14 -327 27 -498 29 -74 0 -134 0 -135 0z m238 -1388 c77 -3 154 -8 170
-11 17 -2 46 -6 65 -8 209 -27 382 -105 483 -217 36 -40 93 -135 90 -150 -1
-3 3 -10 8 -16 5 -7 12 -21 14 -33 3 -12 7 -31 10 -43 2 -13 7 -34 10 -48 l5
-25 -1020 0 -1021 0 5 30 c18 112 75 225 151 300 34 33 69 66 78 72 18 15 97
56 112 60 5 1 37 12 70 24 33 11 70 23 83 25 21 4 40 8 95 19 47 9 137 16 277
22 80 3 147 7 148 8 2 2 9 2 15 0 7 -2 75 -6 152 -9z"/>
<path d="M19066 25002 c-4 -3 -35 -5 -70 -4 -44 1 -65 -2 -68 -11 -2 -6 -4
-1094 -3 -2417 0 -1790 3 -2405 12 -2405 6 0 15 -3 18 -7 4 -4 16 -3 26 3 11
5 19 6 19 2 0 -10 75 -7 92 3 6 4 9 3 6 -2 -4 -5 7 -9 22 -9 15 0 26 3 23 7
-2 5 8 3 24 -3 15 -6 28 -10 28 -10 0 0 13 4 28 10 16 6 26 8 24 3 -3 -4 8 -7
24 -7 16 0 29 4 29 8 0 5 5 5 11 2 15 -10 78 -12 73 -3 -3 5 6 4 19 -1 16 -6
28 -6 35 1 6 6 12 6 16 -1 5 -7 15 -7 32 -1 15 6 23 6 19 1 -3 -6 6 -6 24 -1
16 4 32 6 35 2 9 -8 65 -8 59 0 -2 5 7 4 21 -2 16 -6 26 -6 26 0 0 6 9 6 24 0
15 -5 27 -5 34 2 6 6 12 6 16 -1 5 -7 15 -7 31 -1 14 5 25 6 25 1 0 -5 16 -5
35 -1 19 4 35 4 35 -1 0 -5 11 -4 25 1 14 5 25 6 25 2 0 -4 11 -7 25 -7 14 0
25 3 25 7 0 4 11 3 25 -2 15 -6 26 -6 30 1 4 5 11 6 17 3 16 -10 68 -11 68 -1
0 4 8 4 18 -1 16 -9 60 -7 70 3 2 2 15 0 28 -5 14 -6 26 -6 29 1 4 5 12 6 18
2 6 -4 21 -7 32 -7 11 0 26 3 32 7 6 4 14 3 18 -2 3 -6 15 -7 28 -2 12 5 32 5
44 0 13 -5 25 -4 28 1 3 5 11 7 18 5 23 -9 117 -11 117 -2 0 4 5 5 11 2 15
-10 78 -12 73 -3 -3 5 6 4 19 -1 14 -6 28 -7 31 -4 3 4 6 1094 6 2424 l0 2418
-27 -3 c-16 -1 -38 1 -49 5 -12 4 -25 5 -28 1 -10 -9 -86 -8 -86 1 0 5 -5 5
-10 2 -16 -10 -111 -12 -116 -3 -3 5 -10 5 -17 1 -17 -10 -57 -10 -57 1 0 6
-5 5 -11 -1 -8 -8 -20 -8 -34 -3 -13 5 -25 6 -28 3 -9 -8 -168 -9 -174 0 -2 4
-9 4 -16 0 -17 -10 -57 -10 -57 1 0 6 -5 5 -11 -1 -8 -8 -20 -8 -34 -3 -13 5
-25 6 -28 3 -9 -8 -168 -9 -174 0 -2 4 -9 4 -16 0 -17 -10 -57 -10 -57 1 0 6
-5 5 -11 -1 -8 -8 -20 -8 -34 -3 -13 5 -25 6 -28 3 -9 -8 -168 -9 -174 0 -2 4
-9 4 -16 0 -17 -10 -57 -10 -57 1 0 6 -5 5 -11 -1 -8 -8 -20 -8 -34 -3 -13 5
-25 6 -28 3 -10 -10 -167 -8 -167 2 0 5 -5 4 -11 -2 -8 -8 -20 -8 -34 -3 -13
5 -26 6 -29 2z"/>
</g>
</svg>
